# AST/ASF file generated using VICON BodyLanguage
# -----------------------------------------------
:version 1.10
:name VICON
:units
  mass 1.0
  length 0.45
  angle deg
:documentation
   .ast/.asf automatically generated from VICON data using
   VICON BodyBuilder and BodyLanguage model FoxedUp or BRILLIANT.MOD
:root
   order TX TY TZ RX RY RZ
   axis XYZ
   position 0 0 0  
   orientation 0 0 0 
:bonedata
  begin
     id 1 
     name lhipjoint
     direction 0.653368 -0.678499 0.335782 
     length 2.51848 
     axis 0 0 0  XYZ
  end
  begin
     id 2 
     name lfemur
     direction 0.34202 -0.939693 0  
     length 6.57749  
     axis 0 0 20  XYZ
    dof rx ry rz
    limits (-160.0 20.0)
           (-70.0 70.0)
           (-60.0 70.0)
  end
  begin
     id 3 
     name ltibia
     direction 0.34202 -0.939693 0   
     length 7.94618   
     axis 0 0 20   XYZ
    dof rx
    limits (-10.0 170.0)
  end
  begin
     id 4 
     name lfoot
     direction 0.0811271 -0.222895 0.971461   
     length 2.31339   
     axis -90 7.62852e-016 20   XYZ
    dof rx rz
    limits (-45.0 90.0)
           (-70.0 20.0)
  end
  begin
     id 5 
     name ltoes
     direction 1.53568e-011 -4.21885e-011 1   
     length 1.15935   
     axis -90 7.62852e-016 20   XYZ
    dof rx
    limits (-90.0 20.0)
  end
  begin
     id 6 
     name rhipjoint
     direction -0.640058 -0.688614 0.340788   
     length 2.48149  
     axis 0 0 0  XYZ 
  end
  begin
     id 7 
     name rfemur
     direction -0.34202 -0.939693 0   
     length 6.57875   
     axis 0 0 -20   XYZ
    dof rx ry rz
    limits (-160.0 20.0)
           (-70.0 70.0)
           (-70.0 60.0)
  end
  begin
     id 8 
     name rtibia
     direction -0.34202 -0.939693 0   
     length 7.977   
     axis 0 0 -20   XYZ
    dof rx
    limits (-10.0 170.0)
 end
 begin
     id 9 
     name rfoot
     direction -0.0979793 -0.269196 0.958089   
     length 2.19857  
     axis -90 -7.62852e-016 -20   XYZ
    dof rx rz
    limits (-45.0 90.0)
           (-20.0 70.0)
  end
  begin
     id 10 
     name rtoes
     direction -1.53556e-011 -4.21868e-011 1   
     length 1.09838   
     axis -90 -7.62852e-016 -20   XYZ
    dof rx
    limits (-90.0 20.0)
  end
  begin
     id 11 
     name lowerback
     direction 0.0149039 0.998517 -0.0523597   
     length 2.10809   
     axis 0 0 0   XYZ
    dof rx ry rz
    limits (-20.0 45.0)
           (-30.0 30.0)
           (-30.0 30.0)
  end
  begin
     id 12 
     name upperback
     direction -0.00882659 0.999418 -0.0329624   
     length 2.1102   
     axis 0 0 0   XYZ
    dof rx ry rz
    limits (-20.0 45.0)
           (-30.0 30.0)
           (-30.0 30.0)
  end
  begin
     id 13 
     name thorax
     direction -0.0165585 0.999826 -0.0085833   
     length 2.11039   
     axis 0 0 0   XYZ
    dof rx ry rz
    limits (-20.0 45.0)
           (-30.0 30.0)
           (-30.0 30.0)
  end
  begin
     id 14 
     name lowerneck
     direction -0.0130877 0.999911 0.00260353   
     length 1.73253   
     axis 0 0 0   XYZ
    dof rx ry rz
    limits (-20.0 45.0)
           (-30.0 30.0)
           (-30.0 30.0)
  end
  begin
     id 15 
     name upperneck
     direction -0.0348454 0.928205 -0.370435   
     length 1.66692   
     axis 0 0 0   XYZ
    dof rx ry rz
    limits (-20.0 45.0)
           (-30.0 30.0)
           (-30.0 30.0)
  end
  begin
     id 16
     name head
     direction -0.00807754 0.992494 -0.122026  
     length 1.72765  
     axis 0 0 0   XYZ
    dof rx ry rz
    limits (-20.0 45.0)
           (-30.0 30.0)
           (-30.0 30.0)
  end
  begin
     id 17 
     name lclavicle
     direction 0.987582 0.144023 0.0627671  
     length 3.49235  
     axis 0 0 0   XYZ
    dof ry rz
    limits (-20.0 10.0)
           (0.0 20.0)
  end
  begin
     id 18 
     name lhumerus
     direction 1 -4.48958e-011 -1.45183e-018   
     length 5.41917   
     axis 180 -30 -90   XYZ
    dof rx ry rz
    limits (-60.0 90.0)
           (-90.0 90.0)
           (-90.0 90.0)
  end
  begin
     id 19
     name lradius
     direction 1 -4.48999e-011 5.75106e-027   
     length 2.44373   
     axis 180 -30 -90   XYZ
    dof rx
    limits (-10.0 170.0)
  end
  begin
     id 20
     name lwrist
     direction 1 -4.48987e-011 1.53461e-026   
     length 1.22186   
     axis -1.09697e-014 90 90   XYZ
    dof ry
    limits (-180.0 0.0)
 end
  begin
     id 21 
     name lhand
     direction 1 -4.48881e-011 3.06923e-026   
     length 0.727502   
     axis -1.95843e-014 90 90   XYZ
    dof rx rz
    limits (-90.0 90.0)
           (-45.0 45.0)
  end
  begin
     id 22 
     name lfingers
     direction 1 -4.48907e-011 6.13845e-026   
     length 0.586531   
     axis -3.91686e-014 90 90   XYZ
    dof rx
    limits (0.0 90.0)
  end
  begin
     id 23
     name lthumb
     direction 0.707107 -6.3487e-011 0.707107   
     length 0.842145   
     axis -90 45 2.85299e-015   XYZ
    dof rx rz
    limits (-45.0 45.0)
           (-45.0 45.0)
  end
  begin
     id 24 
     name rclavicle
     direction -0.980998 0.169556 0.0943023   
     length 3.29272  
     axis 0 0 0   XYZ 
    dof ry rz
    limits (-10.0 20.0)
           (-20.0 0.0)
  end
  begin
     id 25 
     name rhumerus
     direction -1 -1.83355e-005 2.45537e-005  
     length 5.58976   
     axis 180 30 90   XYZ
    dof rx ry rz
    limits (-90.0 60.0)
           (-90.0 90.0)
           (-90.0 90.0)
  end
  begin
     id 26 
     name rradius
     direction -1 -4.48967e-011 5.97228e-027   
     length 2.4806   
     axis 180 30 90   XYZ
    dof rx
    limits (-10.0 170.0)
  end
  begin
     id 27 
     name rwrist
     direction -1 -4.48963e-011 1.53461e-026   
     length 1.2403   
     axis -1.09697e-014 -90 -90   XYZ
    dof ry
    limits (-180.0 0.0)
  end
  begin
     id 28
     name rhand
     direction -1 -4.48881e-011 3.06923e-026   
     length 0.816009   
     axis -1.95843e-014 -90 -90   XYZ
    dof rx rz
    limits (-90.0 90.0)
           (-45.0 45.0)
  end
  begin
     id 29
     name rfingers
     direction -1 -4.49018e-011 6.13845e-026   
     length 0.657887   
     axis -3.91686e-014 -90 -90   XYZ
    dof rx
    limits (0.0 90.0)
  end
  begin
     id 30
     name rthumb
     direction -0.707107 -6.34872e-011 0.707107   
     length 0.944599   
     axis -90 -45 -2.85299e-015   XYZ
    dof rx rz
    limits (-45.0 45.0)
           (-45.0 45.0)
  end
:hierarchy
  begin
    root lhipjoint rhipjoint lowerback
    lhipjoint lfemur
    lfemur ltibia
    ltibia lfoot
    lfoot ltoes
    rhipjoint rfemur
    rfemur rtibia
    rtibia rfoot
    rfoot rtoes
    lowerback upperback
    upperback thorax
    thorax lowerneck lclavicle rclavicle
    lowerneck upperneck
    upperneck head
    lclavicle lhumerus
    lhumerus lradius
    lradius lwrist
    lwrist lhand lthumb
    lhand lfingers
    rclavicle rhumerus
    rhumerus rradius
    rradius rwrist
    rwrist rhand rthumb
    rhand rfingers
  end

#!OML:ASF F:\VICON\USERDATA\INSTALL\rory3\rory3.ASF
:FULLY-SPECIFIED
:DEGREES
343
root -0.44037 16.2957 -5.17415 -163.367 -11.1818 181.303
lowerback -15.669 -0.785625 3.05478
upperback -3.8775 -2.22019 2.64785
thorax 4.65792 -1.30518 0.616152
lowerneck -12.5771 2.32216 -0.536687
upperneck 42.9055 -2.55314 -0.279702
head 18.1697 -3.11883 -1.14656
rclavicle 1.79155e-014 -4.85035e-014
rhumerus -42.9376 7.43525 -85.8587
rradius 31.3589
rwrist -20.4271
rhand -6.25059 11.7068
rfingers 7.12502
rthumb 19.5914 -17.3261
lclavicle 1.79155e-014 -4.85035e-014
lhumerus -49.8779 -1.99713 87.3574
lradius 65.8019
lwrist -5.3916
lhand 4.78023 20.1427
lfingers 7.12502
lthumb 30.1603 47.7008
rfemur -42.0931 -1.33885 33.697
rtibia 44.7479
rfoot -47.543 -29.3518
rtoes 45.233
lfemur -17.2795 10.8544 -24.8098
ltibia 51.3504
lfoot 28.4924 20.1089
ltoes 23.5834
344
root -0.443048 16.2949 -5.18348 -163.23 -10.7266 181.501
lowerback -15.8127 -0.620737 3.17169
upperback -3.93712 -2.04525 2.66486
thorax 4.6709 -1.22604 0.598972
lowerneck -12.4305 2.32122 -0.533948
upperneck 42.8756 -2.57977 -0.276967
head 18.1119 -3.13726 -1.14822
rclavicle 1.6524e-014 0
rhumerus -43.0177 7.48132 -85.9644
rradius 31.4262
rwrist -20.3104
rhand -6.21752 11.7686
rfingers 7.12502
rthumb 19.6232 -17.261
lclavicle 1.6524e-014 0
lhumerus -50.0423 -1.92637 87.2957
lradius 65.8661
lwrist -5.53817
lhand 4.87118 20.3689
lfingers 7.12502
lthumb 30.2471 47.9111
rfemur -42.1579 -1.07222 33.8456
rtibia 44.6557
rfoot -47.2963 -29.1968
rtoes 45.5278
lfemur -17.4795 11.1952 -24.7942
ltibia 51.3524
lfoot 28.5123 19.4797
ltoes 21.8553
345
root -0.450322 16.2943 -5.17863 -162.567 -9.70083 181.947
lowerback -16.2848 -0.142269 3.58426
upperback -4.15044 -1.5573 2.67806
thorax 4.69473 -1.00896 0.468038
lowerneck -12.3656 2.27988 -0.599256
upperneck 42.8085 -2.65433 -0.191458
head 18.0563 -3.16557 -1.10528
rclavicle 2.18415e-014 -7.15625e-015
rhumerus -43.0202 7.41801 -86.0145
rradius 31.4151
rwrist -20.1787
rhand -6.24226 11.8919
rfingers 7.12502
rthumb 19.5995 -17.1401
lclavicle 2.18415e-014 -7.15625e-015
lhumerus -50.1864 -1.86128 87.1997
lradius 66.028
lwrist -5.68924
lhand 5.23397 20.9512
lfingers 7.12502
lthumb 30.5931 48.4294
rfemur -42.9096 -0.873874 34.3285
rtibia 44.5953
rfoot -46.0385 -29.2089
rtoes 44.8508
lfemur -18.3475 11.9141 -24.9059
ltibia 51.3505
lfoot 27.9385 19.8509
ltoes 22.4392
346
root -0.456393 16.2985 -5.19936 -163.26 -10.7589 181.591
lowerback -15.8262 -0.633158 3.32527
upperback -3.96422 -2.09295 2.67891
thorax 4.64452 -1.25138 0.517934
lowerneck -12.2083 2.27573 -0.629101
upperneck 42.6862 -2.63562 -0.174729
head 17.9403 -3.15906 -1.07914
rclavicle -7.8023e-015 3.26007e-014
rhumerus -43.0771 7.3307 -85.9499
rradius 31.4766
rwrist -20.0418
rhand -6.08829 12.0667
rfingers 7.12502
rthumb 19.7475 -16.9502
lclavicle -7.8023e-015 3.26007e-014
lhumerus -50.2701 -1.77622 87.1937
lradius 66.0083
lwrist -5.70617
lhand 5.44016 21.2749
lfingers 7.12502
lthumb 30.7897 48.7163
rfemur -42.1008 -1.45545 34.0296
rtibia 44.6203
rfoot -46.9856 -29.2156
rtoes 44.8533
lfemur -17.2905 11.0074 -24.7292
ltibia 51.1581
lfoot 28.2453 19.6332
ltoes 22.2416
347
root -0.460583 16.3011 -5.20615 -163.449 -11.166 181.425
lowerback -15.6174 -0.785268 3.20844
upperback -3.93857 -2.24587 2.63356
thorax 4.55917 -1.32144 0.511664
lowerneck -12.1444 2.23475 -0.555577
upperneck 42.649 -2.68145 -0.261659
head 17.8985 -3.17688 -1.13776
rclavicle 1.87355e-014 2.22639e-014
rhumerus -43.075 7.3078 -86.0016
rradius 31.3594
rwrist -20.1413
rhand -5.92292 12.2498
rfingers 7.12502
rthumb 19.9064 -16.7506
lclavicle 1.87355e-014 2.22639e-014
lhumerus -50.2406 -1.91554 87.2215
lradius 65.8171
lwrist -5.69026
lhand 5.58684 21.7013
lfingers 7.12502
lthumb 30.9296 49.1162
rfemur -41.8902 -1.66195 33.8644
rtibia 44.6371
rfoot -47.3171 -29.4919
rtoes 45.4859
lfemur -16.9577 10.5873 -24.7475
ltibia 51.0337
lfoot 28.5053 19.5199
ltoes 21.5167
348
root -0.460898 16.3031 -5.20733 -163.445 -11.1408 181.397
lowerback -15.6324 -0.740233 3.14482
upperback -3.88859 -2.16767 2.58432
thorax 4.62109 -1.27855 0.509643
lowerneck -12.1888 2.17487 -0.537071
upperneck 42.6344 -2.78782 -0.214564
head 17.9033 -3.20345 -1.13682
rclavicle 7.60351e-015 -1.43125e-014
rhumerus -42.8777 7.14026 -85.9809
rradius 31.1025
rwrist -20.0763
rhand -5.82732 12.4185
rfingers 7.12502
rthumb 19.9983 -16.5724
lclavicle 7.60351e-015 -1.43125e-014
lhumerus -50.137 -2.12501 87.2588
lradius 65.6513
lwrist -5.74234
lhand 5.68378 21.7062
lfingers 7.12502
lthumb 31.022 49.1035
rfemur -41.8801 -1.44582 33.7655
rtibia 44.6938
rfoot -47.768 -29.3722
rtoes 46.0399
lfemur -16.9034 10.5706 -24.7846
ltibia 50.9053
lfoot 28.9856 19.4954
ltoes 21.0383
349
root -0.463108 16.303 -5.2135 -163.416 -11.1297 181.59
lowerback -15.7605 -0.696716 3.26275
upperback -3.88259 -2.14918 2.66235
thorax 4.69609 -1.27122 0.525647
lowerneck -12.0797 2.16136 -0.574701
upperneck 42.5998 -2.80819 -0.204403
head 17.854 -3.21927 -1.1254
rclavicle -1.66482e-015 2.14687e-014
rhumerus -42.8226 7.16686 -85.9722
rradius 31.0019
rwrist -20.0499
rhand -5.84807 12.2884
rfingers 7.12502
rthumb 19.9784 -16.7046
lclavicle -1.66482e-015 2.14687e-014
lhumerus -50.2124 -2.16277 87.3062
lradius 65.5969
lwrist -5.82422
lhand 5.46256 21.2235
lfingers 7.12502
lthumb 30.8111 48.6608
rfemur -41.9212 -1.30071 33.9448
rtibia 44.7311
rfoot -47.7465 -28.912
rtoes 46.1934
lfemur -16.9344 10.5408 -24.6068
ltibia 50.8563
lfoot 29.0116 19.9202
ltoes 21.7705
350
root -0.467745 16.2997 -5.22276 -163.291 -11.055 181.485
lowerback -15.8914 -0.690421 3.1261
upperback -3.96225 -2.13399 2.65311
thorax 4.68697 -1.27069 0.593551
lowerneck -12.0461 2.18313 -0.614153
upperneck 42.7262 -2.83507 -0.186051
head 17.922 -3.25107 -1.12403
rclavicle 1.39646e-014 7.95139e-015
rhumerus -42.9164 7.18764 -85.9614
rradius 30.9751
rwrist -20.0653
rhand -5.69351 11.8768
rfingers 7.12502
rthumb 20.127 -17.1006
lclavicle 1.39646e-014 7.95139e-015
lhumerus -50.3177 -2.06996 87.2943
lradius 65.4437
lwrist -6.04852
lhand 5.33582 20.8775
lfingers 7.12502
lthumb 30.6902 48.3375
rfemur -42.0455 -1.28586 33.8213
rtibia 44.7949
rfoot -47.8835 -29.2371
rtoes 46.1871
lfemur -16.9368 10.4059 -24.8065
ltibia 50.7714
lfoot 28.31 20.3896
ltoes 23.1535
351
root -0.473012 16.2941 -5.22747 -163.218 -10.9939 181.303
lowerback -15.8568 -0.677329 2.98183
upperback -4.03855 -2.08912 2.58772
thorax 4.5901 -1.25321 0.616369
lowerneck -12.0704 2.16871 -0.610435
upperneck 42.8135 -2.89735 -0.182061
head 17.9819 -3.28346 -1.14094
rclavicle -1.75427e-014 3.73715e-014
rhumerus -43.0472 7.16168 -85.9942
rradius 30.9856
rwrist -20.1941
rhand -5.81276 11.7443
rfingers 7.12502
rthumb 20.0123 -17.2451
lclavicle -1.75427e-014 3.73715e-014
lhumerus -50.5284 -2.09264 87.2976
lradius 65.5392
lwrist -6.08893
lhand 5.28432 20.583
lfingers 7.12502
lthumb 30.6411 48.0523
rfemur -42.1292 -1.38709 33.6321
rtibia 44.8616
rfoot -47.7888 -29.2547
rtoes 46.2314
lfemur -16.8429 10.2283 -25.0792
ltibia 50.664
lfoot 27.417 21.0975
ltoes 25.0546
352
root -0.477486 16.2921 -5.23298 -163.214 -11.0006 181.272
lowerback -15.7462 -0.618011 2.98773
upperback -4.11012 -2.00436 2.53242
thorax 4.45318 -1.21525 0.574465
lowerneck -12.0804 2.11252 -0.62481
upperneck 42.8555 -3.04221 -0.0842263
head 18.014 -3.33398 -1.12186
rclavicle -3.04389e-014 1.82882e-014
rhumerus -43.1808 6.97324 -85.965
rradius 31.0167
rwrist -20.2876
rhand -5.87114 11.9543
rfingers 7.12502
rthumb 19.9562 -17.041
lclavicle -3.04389e-014 1.82882e-014
lhumerus -50.6441 -2.22701 87.3304
lradius 65.4716
lwrist -6.13761
lhand 5.04482 20.1419
lfingers 7.12502
lthumb 30.4127 47.6536
rfemur -42.1146 -1.40674 33.5806
rtibia 44.9153
rfoot -47.8626 -29.1617
rtoes 46.2058
lfemur -16.7306 10.0923 -25.1486
ltibia 50.5503
lfoot 27.2702 21.4398
ltoes 25.7174
353
root -0.478818 16.2912 -5.24042 -163.284 -10.8778 181.281
lowerback -15.6482 -0.575989 2.93653
upperback -4.15951 -1.93918 2.54024
thorax 4.35062 -1.18706 0.626677
lowerneck -11.965 2.13422 -0.812957
upperneck 42.8561 -3.05917 0.12213
head 17.9909 -3.35232 -0.99411
rclavicle 1.22501e-014 4.05521e-014
rhumerus -43.2959 7.00047 -85.9717
rradius 30.9554
rwrist -20.3212
rhand -5.92205 12.3077
rfingers 7.12502
rthumb 19.9073 -16.6927
lclavicle 1.22501e-014 4.05521e-014
lhumerus -50.6996 -2.18905 87.3595
lradius 65.2088
lwrist -6.26062
lhand 4.88182 19.8092
lfingers 7.12502
lthumb 30.2572 47.3495
rfemur -42.0232 -1.38064 33.5883
rtibia 44.9547
rfoot -47.6009 -29.4386
rtoes 45.8128
lfemur -16.5844 10.0897 -25.1995
ltibia 50.4403
lfoot 27.7177 21.1897
ltoes 24.5315
